<?xml version="1.0" encoding="UTF-8"?> <svg xmlns="http://www.w3.org/2000/svg" xmlns:xlink="http://www.w3.org/1999/xlink" version="1.1" id="Layer_1" x="0px" y="0px" viewBox="0 0 1372 283" style="enable-background:new 0 0 1372 283;" xml:space="preserve"> <path d="M113.1,167.8c38.5,0,70.1,28.8,70,70h-140C43,196.6,74.5,167.8,113.1,167.8z"></path> <path d="M170.8,70.3c-8.8,0-15.1,3.9-21,12.2L133,106.6V37.8H93v68.7L76.3,82.5c-5.8-8.4-12.1-12.2-21-12.2 c-13.3,0-22.2,9.9-22.3,22c0,10.4,4.9,17.2,15.2,23.8l64.8,41.8l64.8-41.8c10.3-6.6,15.2-13.4,15.2-23.8 C193,80.1,184.1,70.3,170.8,70.3z"></path> <path d="M264.9,81.6c-14.9,0-24.4-9.2-24.4-23.4S250.3,35,264.9,35c14.9,0,24.3,9.2,24.3,23.4S279.6,81.6,264.9,81.6z M286.7,90.6 v147.3h-43.5V90.6L286.7,90.6z"></path> <path d="M351.2,90.6V118h2.1c8.3-19.4,22.7-30.3,45.9-30.3c31.4,0,50.8,18.7,50.8,54.8v95.3h-43.5v-87.2c0-20.3-8.7-29.6-26-29.6 c-18,0-28.1,9.9-28.1,30.7v86.1h-43.5V90.6H351.2z"></path> <path d="M505.3,191.3c1.7,12.8,9.5,19.4,23.4,19.4c15.4,0,21.8-5.9,21.8-14.2c0-8-4-12.8-17.3-14.2l-18.9-2.1 c-33.8-3.8-47.8-18.9-47.8-44c0-27.9,21-48.5,61.7-48.5c39.7,0,58.4,18.9,60.8,47.5h-40.2c-0.9-11.1-7.6-17.5-21.5-17.5 c-14.4,0-20.8,5.9-20.8,14.2c0,7.1,4.5,11.1,15.6,12.5l21.3,2.9c33.3,4.5,47.5,18,47.5,44.2c0,28.8-22.5,49.2-62.4,49.2 c-41.4,0-62.2-19.9-65-49.4H505.3z"></path> <path d="M616,194.6v-69.5h-18.7V96.2c24.1-1.7,33.6-10.6,34.5-32.9h27.7v27.2h32.9v34.5h-32.9v62.2c0,14.7,6.1,19.1,18.2,19.1 c3.7,0,7.3-0.4,10.9-1.2v32.9c-7,1.8-14.3,2.7-21.5,2.6C631.4,240.7,616,224.6,616,194.6z"></path> <path d="M790.2,213.2h-1.8c-6.9,17.2-19.9,27.4-42.3,27.4c-29.3,0-45.2-18.2-45.2-41.6c0-21.8,12.3-36.9,45.6-43l25.1-4.5 c12.8-2.4,17.3-6.8,17.3-14.4c0-10.2-7.1-16.1-20.8-16.1c-15.1,0-22.7,6.8-24.1,18.7h-41.4c4.5-31.7,27.7-52,67.1-52 c42.5,0,62.7,21.5,62.7,54.6v95.5h-42.1V213.2z M788.8,170c-3.8,2.8-8.8,5-15.6,6.6l-13,3.1c-11.3,2.6-15.6,7.8-15.6,15.8 c0,10.4,7.3,16.3,19.6,16.3c14.7,0,24.6-8,24.6-26.9L788.8,170z"></path> <path d="M926.9,87.7c45.9,0,71.4,25.1,74.7,65.3h-43c-2.1-18.2-12-29.8-31.9-29.8c-22.2,0-34.8,13.9-34.8,40.2 c0,27.9,13.5,41.8,35.2,41.8c18.4,0,30-10.9,32.1-30.5h43.3c-4,41.1-31.7,66-76.8,66c-49.6,0-77.8-29.8-77.8-75.9 C847.9,118.2,879.1,87.7,926.9,87.7z"></path> <path d="M1102.6,213.2h-1.9c-6.8,17.2-19.8,27.4-42.3,27.4c-29.3,0-45.2-18.2-45.2-41.6c0-21.8,12.3-36.9,45.6-43l25.1-4.5 c12.8-2.4,17.3-6.8,17.3-14.4c0-10.2-7.1-16.1-20.8-16.1c-15.1,0-22.7,6.8-24.1,18.7h-41.4c4.5-31.7,27.7-52,67.1-52 c42.5,0,62.6,21.5,62.6,54.6v95.5h-42.1V213.2z M1101.2,170c-3.8,2.8-8.8,5-15.6,6.6l-13,3.1c-11.3,2.6-15.6,7.8-15.6,15.8 c0,10.4,7.3,16.3,19.6,16.3c14.7,0,24.6-8,24.6-26.9V170z"></path> <path d="M1206.8,90.6v35.7h2.1c7.3-30,18-38.3,32.2-38.3c3,0,5.9,0.5,8.8,1.4v40.9c-3.9-0.6-7.9-0.9-11.8-0.9 c-20.6,0-28.8,8.3-28.8,31.4v77.1h-43.5V90.6H1206.8z"></path> <path d="M1263,92.2c11.3-4.5,16.1-13.7,16.8-28.8h26.7v27.2h32.9v34.5h-32.9v62.2c0,14.7,6.1,19.1,18.2,19.1c3.6,0,7.3-0.4,10.9-1.2 v32.9c-7,1.8-14.3,2.7-21.5,2.6c-35.7,0-51.1-16.1-51.1-46.1V92.2z"></path> </svg> 