<svg width="64" height="64" viewBox="0 0 64 64" fill="none" xmlns="http://www.w3.org/2000/svg">
<path fill-rule="evenodd" clip-rule="evenodd" d="M32 64C49.6731 64 64 49.6731 64 32C64 14.3269 49.6731 0 32 0C14.3269 0 0 14.3269 0 32C0 49.6731 14.3269 64 32 64ZM34.2678 11.2322L32.5 9.46446L30.7322 11.2322L14.2322 27.7322C13.2559 28.7085 13.2559 30.2915 14.2322 31.2678C15.2086 32.2441 16.7914 32.2441 17.7678 31.2678L30 19.0355V54C30 55.3807 31.1193 56.5 32.5 56.5C33.8807 56.5 35 55.3807 35 54V19.0355L47.2322 31.2678C48.2086 32.2441 49.7914 32.2441 50.7678 31.2678C51.7441 30.2915 51.7441 28.7085 50.7678 27.7322L34.2678 11.2322Z" fill="#3B3B40"/>
</svg>
