<svg width="64" height="64" viewBox="0 0 64 64" fill="none" xmlns="http://www.w3.org/2000/svg">
<path fill-rule="evenodd" clip-rule="evenodd" d="M1.67694 43.7232C1.74392 37.5562 5.04364 31.5279 10.8678 28.1653C14.0019 26.3558 17.4391 25.5653 20.7831 25.6927C22.2297 19.9273 25.2075 14.4672 29.7163 9.95838C38.6151 1.05958 51.2194 -1.87527 62.5624 1.15391C65.5916 12.4969 62.6567 25.1012 53.7579 34C49.2491 38.5089 43.789 41.4866 38.0236 42.9332C38.151 46.2772 37.3605 49.7144 35.551 52.8485C32.1884 58.6727 26.1602 61.9724 19.9931 62.0394C16.9676 56.665 16.8111 49.7946 20.1737 43.9705C20.4005 43.5776 20.6394 43.1963 20.8897 42.8267C20.52 43.077 20.1387 43.3159 19.7459 43.5426C13.9217 46.9052 7.05127 46.7487 1.67694 43.7232ZM4.61401 53.4454C1.44143 56.618 -0.191013 60.5256 0.0178191 63.6985C3.19067 63.9073 7.09826 62.2749 10.2709 59.1023C13.4434 55.9297 15.0759 52.0221 14.8671 48.8493C11.6942 48.6404 7.78662 50.2729 4.61401 53.4454ZM48.0644 22.3351C51.9304 22.3351 55.0644 19.2011 55.0644 15.3351C55.0644 11.4691 51.9304 8.33506 48.0644 8.33506C44.1984 8.33506 41.0644 11.4691 41.0644 15.3351C41.0644 19.2011 44.1984 22.3351 48.0644 22.3351Z" fill="#3B3B40"/>
</svg>
