<svg width="69" height="58" viewBox="0 0 69 58" fill="none" xmlns="http://www.w3.org/2000/svg">
<path fill-rule="evenodd" clip-rule="evenodd" d="M0 8C0 3.58172 3.58172 0 8 0H61C65.4183 0 69 3.58172 69 8V37C69 41.4183 65.4183 45 61 45H21.6129L7.5 57.5L10.8333 45H8C3.58172 45 0 41.4183 0 37V8ZM22 18C24.2091 18 26 16.2091 26 14C26 11.7909 24.2091 10 22 10C19.7909 10 18 11.7909 18 14C18 16.2091 19.7909 18 22 18ZM50 14C50 16.2091 48.2091 18 46 18C43.7909 18 42 16.2091 42 14C42 11.7909 43.7909 10 46 10C48.2091 10 50 11.7909 50 14ZM21.3193 29.0311C20.7842 28.3987 19.8377 28.3198 19.2053 28.8549C18.5729 29.3901 18.4941 30.3366 19.0292 30.9689C22.4114 34.9659 27.9753 37.5 34.1743 37.5C40.3732 37.5 45.9371 34.9659 49.3193 30.9689C49.8544 30.3366 49.7756 29.3901 49.1432 28.8549C48.5108 28.3198 47.5643 28.3987 47.0292 29.0311C44.2768 32.2836 39.5878 34.5 34.1743 34.5C28.7607 34.5 24.0717 32.2836 21.3193 29.0311Z" fill="#7868E6"/>
</svg>
